<?xml version="1.0" encoding="utf-8"?>
<!-- Generator: Adobe Illustrator 21.1.0, SVG Export Plug-In . SVG Version: 6.00 Build 0)  -->
<svg version="1.1" xmlns="http://www.w3.org/2000/svg" xmlns:xlink="http://www.w3.org/1999/xlink" x="0px" y="0px"
	 viewBox="0 0 216.51 118.91" style="enable-background:new 0 0 216.51 118.91;" xml:space="preserve">
<style type="text/css">
	.st0{fill:#B42E34;}
</style>
<path class="st0" d="M23.12,56.22c0-15.59,7.8-24.41,14.92-24.41c4.97,0,8.59,3.62,10.51,8.14V10.34c0-3.96-0.79-4.97-5.54-4.97
	h-0.79V2.55l16.95-1.13v73.56c0,2.71,0.79,3.05,5.42,3.28v2.82l-16.05,0.56v-8.81c-1.36,4.18-4.75,9.6-10.85,9.6
	C29.9,82.44,23.12,72.38,23.12,56.22 M48.66,60.29v-8.7c0-7.57-3.16-15.37-7.35-15.37c-3.95,0-6.33,2.71-6.21,20
	c0,16.5,1.58,21.81,5.99,21.81C46.06,78.03,48.66,69.89,48.66,60.29"/>
<path class="st0" d="M77.25,75.32c-2.37,0-4.63,4.29-5.42,5.99h-2.6V55.88h2.6c5.42,12.2,13.33,23.17,20.68,23.17
	c5.76,0,8.81-4.97,8.59-11.19c-0.23-8.25-7.35-13.79-14.8-19.55c-8.25-6.44-16.84-13.56-16.84-26.1c0-11.41,7.68-20.23,18.98-20.23
	c7.68,0,11.64,5.76,14.01,5.76c1.36,0,2.83-1.36,4.41-4.75h2.26v23.05h-2.71c-3.73-9.94-9.6-20.34-17.29-20.34
	c-5.31,0-8.47,4.52-8.25,10.06c0.23,8.25,7.23,13.9,14.58,19.55c8.25,6.55,17.06,13.45,17.06,25.76c0,13.9-9.49,21.58-19.1,21.58
	C84.48,82.66,79.51,75.32,77.25,75.32"/>
<path d="M120.65,46.21c0,0,7.91,0,14.13,0c6.22,0,11.91,3.55,11.91,17.27c0,13.71-5.99,18.13-13.09,18.13h-13.09v-3.23h3.08V49.53
	h-2.95V46.21z M129.43,78.18h2.48c3.84,0,8.45-2.48,8.45-14.84c0-12.36-5.14-13.81-7.86-13.81c-2.72,0-3.07,0-3.07,0V78.18z"/>
<path d="M159.46,78.65c1.66,0,4.61-1.36,4.61-5.5h5.73c-0.83,4.2-3.67,8.69-10.76,8.69c-7.1,0-10.29-6.09-10.29-12.89
	c0-6.8,3.43-12.95,10.76-12.95c7.33,0,10.7,5.26,10.7,13.9h-15.37C154.2,77.71,157.81,78.65,159.46,78.65z M154.91,66.24h9.28
	c0-5.03-1.83-6.98-4.73-6.98C156.57,59.26,154.91,61.98,154.91,66.24z"/>
<path d="M22.46,92.2V81.54h-3.37v3.1H18.8c-2.6-2.74-5.85-3.45-7.45-3.45c-1.6,0-9.93,1.54-9.93,9.87c0,8.34,7.86,9.81,8.99,10.29
	c1.12,0.47,6.92,1.89,6.92,6.51c0,4.61-4.38,5.38-5.44,5.38c-1.07,0-6.56-0.89-7.04-8.11H1.47v11.59H4.9v-3.23
	c2.43,2.4,5.02,3.7,8.16,3.7c4.08,0,10.17-3.25,10.17-10.58c0-7.09-6.86-9.46-8.46-10.11c-1.6-0.65-7.75-2.54-7.75-6.5
	c0-3.96,4.14-4.61,4.85-4.61c0.71,0,6.74,0.31,7.21,6.82H22.46z"/>
<path d="M34.52,85.26h-3.01c0,4.97-2.49,6.94-4.2,6.94h-1.89v3.41h3.25c0,0,0,12,0,15.73c0,3.73,3.96,6.33,7.15,6.15
	c3.19-0.18,4.02-0.77,4.02-0.77l0.12-4.03c-2.48,0.79-5.44,0.83-5.44-3.19c0-4.02,0-13.84,0-13.84h5.62V92.2h-5.62V85.26z"/>
<path d="M43.1,99.57c0-4.55,1.42-8.34,8.69-8.34c7.27,0,9.7,3.31,9.7,6.27c0,2.96,0,15.98,0,15.98h3.25v3.23h-9.11l-0.3-2.25
	c-2.36,1.71-3.78,2.71-6.03,2.71c-2.25,0-7.27-1.83-7.27-7.33c0-5.5,5.68-6.86,9.28-7.75c3.61-0.88,4.38-1.95,4.38-4.26
	c0-2.31-2.13-3.31-4.02-3.31c-1.89,0-2.96,1.83-2.96,3.19c0,1.36-0.06,1.84-0.06,1.84H43.1z M55.39,104.36
	c-3.37,0-6.98,1.7-6.98,5.26c0,3.2,2.19,3.49,3.55,3.49c1.36,0,3.37-0.82,3.37-3.37C55.33,107.2,55.39,104.36,55.39,104.36z"/>
<path d="M123.33,99.57c0-4.55,1.42-8.34,8.69-8.34c7.27,0,9.7,3.31,9.7,6.27c0,2.96,0,15.98,0,15.98h3.25v3.23h-9.1l-0.3-2.25
	c-2.36,1.71-3.78,2.71-6.03,2.71c-2.25,0-7.28-1.83-7.28-7.33c0-5.5,5.68-6.86,9.29-7.75c3.61-0.88,4.37-1.95,4.37-4.26
	c0-2.31-2.13-3.31-4.02-3.31c-1.89,0-2.95,1.83-2.95,3.19c0,1.36-0.06,1.84-0.06,1.84H123.33z M135.63,104.36
	c-3.37,0-6.98,1.7-6.98,5.26c0,3.2,2.19,3.49,3.55,3.49c1.36,0,3.37-0.82,3.37-3.37C135.57,107.2,135.63,104.36,135.63,104.36z"/>
<path d="M147.93,99.57c0-4.55,1.42-8.34,8.7-8.34c7.27,0,9.7,3.31,9.7,6.27c0,2.96,0,15.98,0,15.98h3.25v3.23h-9.1l-0.29-2.25
	c-2.37,1.71-3.79,2.71-6.03,2.71c-2.25,0-7.28-1.83-7.28-7.33c0-5.5,5.68-6.86,9.29-7.75c3.61-0.88,4.37-1.95,4.37-4.26
	c0-2.31-2.13-3.31-4.02-3.31c-1.89,0-2.96,1.83-2.96,3.19c0,1.36-0.06,1.84-0.06,1.84H147.93z M160.23,104.36
	c-3.37,0-6.98,1.7-6.98,5.26c0,3.2,2.19,3.49,3.55,3.49c1.36,0,3.37-0.82,3.37-3.37C160.17,107.2,160.23,104.36,160.23,104.36z"/>
<path d="M66.75,92.2h9.22l-0.06,2.64h0.18c2.19-2.31,4.79-3.49,7.63-3.49c2.84,0,6.68,2.01,6.68,5.44c0,3.43,0,16.69,0,16.69h3.26
	v3.23H81.06v-3.23h3.19c0,0,0-14.04,0-15.57c0-1.54-2.07-2.6-3.72-2.6c-1.66,0-4.38,1.36-4.38,4.08c0,2.72,0,14.09,0,14.09h3.07
	v3.23H66.75v-3.23H70V95.67h-3.25V92.2z"/>
<path d="M190.6,91.73c-2.68-0.95-6.15-0.47-8.83,2.21l-0.32-0.16l-0.16-1.58h-9.06v2.76h3.24v18.53h-3.24v3.23h12.62v-3.23h-3.23
	c0,0,0-10.33,0-13.96c0-3.62,3.71-4.1,4.57-4.1c0.87,0,3.32,0.62,4.42,1.88L190.6,91.73z"/>
<path d="M116.65,113.49V81.62h-9.03l-0.02,3.31h3.25v9.5c-1.06-1.6-3.43-3.02-5.91-3.02c-2.48,0-9.81,2.07-9.81,12.71
	c0,10.64,6.03,13.06,9.87,13.06c3.84,0,5.56-2.6,5.56-2.6h0.29v2.13h9.05v-3.23H116.65z M105.77,113.2c-1.54,0-4.58-0.74-4.58-8.82
	c0-8.08,2.97-9.04,4.58-9.04c1.97,0,5.08,0.41,5.08,9.04C110.85,113.01,107.7,113.2,105.77,113.2z"/>
<path d="M211.84,113.49V81.62h-9.02l-0.02,3.31h3.25v9.5c-1.06-1.6-3.43-3.02-5.91-3.02c-2.48,0-9.82,2.07-9.82,12.71
	c0,10.64,6.03,13.06,9.87,13.06c3.85,0,5.56-2.6,5.56-2.6h0.3v2.13h9.05v-3.23H211.84z M200.97,113.2c-1.54,0-4.58-0.74-4.58-8.82
	c0-8.08,2.97-9.04,4.58-9.04c1.97,0,5.08,0.41,5.08,9.04C206.05,113.01,202.89,113.2,200.97,113.2z"/>
</svg>
